<?xml version="1.0" encoding="utf-8"?>
<!-- Generator: Adobe Illustrator 17.1.0, SVG Export Plug-In . SVG Version: 6.00 Build 0)  -->
<!DOCTYPE svg PUBLIC "-//W3C//DTD SVG 1.1//EN" "http://www.w3.org/Graphics/SVG/1.1/DTD/svg11.dtd">
<svg version="1.1" id="Layer_1" xmlns="http://www.w3.org/2000/svg" xmlns:xlink="http://www.w3.org/1999/xlink" x="0px" y="0px"
	 viewBox="0 0 100 100" enable-background="new 0 0 100 100" xml:space="preserve">
<path d="M51.8,46.5c-6.4,0-11.9,1-17.1,3.4c-2.4,1.1-4.7,2.6-6.8,4.2c-0.3,0.2-0.4,0.5-0.3,0.8c0.4,3,0.8,5.9,1.3,8.9
	c0.3,1.9-0.6,3.3-2.4,3.6c-0.8,0.1-1.6,0.2-2.4,0.3c-3.7,0.5-7.4,1-11.2,1.6c-2.4,0.3-4.9,0.7-7.3,1c-1.6,0.2-2.9-0.8-3.2-2.4
	c-0.5-3.7-1.1-7.3-1.5-11c-0.1-0.9,0.1-1.8,0.2-2.7c0.4-2.7,0.9-5.4,1.8-8c0.5-1.4,1.3-2.5,2.5-3.4c5.9-4.1,12.3-7.1,19-9.5
	c5.9-2.1,12-3.5,18.2-4.4c3.6-0.5,7.3-1,11-0.8c3.4,0.2,6.8,0.5,10.2,0.9c5.8,0.7,11.5,2,17.1,3.7c4,1.2,7.8,2.7,11.5,4.5
	c1.1,0.5,1.9,1.4,2.6,2.3c2.2,2.7,3.4,5.8,3.9,9.1c0.3,1.7,0.4,3.4,0.2,5.1c-0.3,3.3-0.6,6.6-1,9.9c-0.2,1.5-1.4,2.5-2.9,2.4
	c-2-0.1-4-0.3-6-0.5c-2.3-0.2-4.7-0.4-7-0.7c-2.7-0.3-5.4-0.5-8.1-0.8c-1.6-0.2-2.6-1.4-2.5-3c0.1-1.4,0.2-2.7,0.4-4.1
	c0.2-1.9,0.4-3.9,0.6-5.8c0-0.4-0.1-0.5-0.4-0.6c-3.6-1.4-7.4-2.5-11.2-3.2C57.7,46.9,54.4,46.5,51.8,46.5z"/>
</svg>
