<?xml version="1.0" encoding="utf-8"?>
<!-- Generator: Adobe Illustrator 17.1.0, SVG Export Plug-In . SVG Version: 6.00 Build 0)  -->
<!DOCTYPE svg PUBLIC "-//W3C//DTD SVG 1.1//EN" "http://www.w3.org/Graphics/SVG/1.1/DTD/svg11.dtd">
<svg version="1.1" id="Layer_1" xmlns="http://www.w3.org/2000/svg" xmlns:xlink="http://www.w3.org/1999/xlink" x="0px" y="0px"
	 viewBox="0 0 100 100" enable-background="new 0 0 100 100" xml:space="preserve">
<path d="M0.9,81.5c0-20.7,0-41.4,0-62.2c0.9,0.6,1.7,1.2,2.6,1.8c15.7,10.9,31.4,21.7,47.1,32.6c0.3,0.2,0.5,0.2,0.8,0
	C67.2,42,82.9,30.4,98.6,18.8c0.1-0.1,0.3-0.2,0.5-0.3c0,21,0,42,0,63C66.4,81.5,33.7,81.5,0.9,81.5z"/>
<path d="M2.3,18.5c31.6,0,63.1,0,94.7,0c-0.8,0.6-1.4,1.1-2.1,1.5C80.5,30.7,66.1,41.3,51.6,52c-0.3,0.2-0.6,0.3-0.9,0
	c-16-11-31.9-22.1-47.9-33.1C2.7,18.8,2.5,18.7,2.3,18.5z"/>
</svg>
