<svg xmlns="http://www.w3.org/2000/svg" viewBox="0 0 100 100" enable-background="new 0 0 100 100"><path d="M99 50c0 27.1-22.1 49.4-49.8 49C22.7 98.6.9 77.1 1 49.9 1 22.5 23.4.6 50.8 1 77.6 1.4 99 23.2 99 50zm-53.6 4.6h-2.5c-2.4 0-4.6.5-6.8 1.5-2.5 1.2-4.6 2.8-5.8 5.4-1.4 2.9-.8 5.8 1.7 7.9 1.2 1 2.5 1.7 4 2.2 3.2 1.1 6.5 1.4 9.8 1.1 2.5-.2 4.8-.9 6.9-2.2 5-3.1 5.7-8.3 3.6-12.8-.8-1.7-2.2-2.8-3.6-3.9-1.1-.9-2.1-1.9-3.1-2.9-1.2-1.3-.7-2.9.1-3.8.6-.6 1.3-1.2 2-1.8 2.7-2.3 4.1-5.1 3.6-8.7-.3-2-1-3.9-2.6-5.3-.4-.4-.9-.7-1.4-1.1.9 0 1.8-.1 2.7 0 .9.1 1.7-.1 2.4-.8.5-.5 1.1-.8 1.7-1.2.1-.1.2-.1.3-.2l-.1-.1h-.4c-4.5 0-9-.1-13.5 0-3.5.1-6.5 1.3-9 3.8-2.3 2.3-3.4 5.1-2.7 8.4.9 4.7 4.7 7.9 9.5 8.1h2c-.9 3.1-.9 3.2 1.2 6.4zm21.9-12.8h-4.1c-.1 0-.3.3-.3.4v4.9H58c-.4 0-.5.1-.5.5V51c0 .1 0 .3.1.5H63v5.3h4.4v-5.3h5.4v-4.1c0-.4-.3-.3-.5-.3h-4.9c-.1-1.7-.1-3.5-.1-5.3zM44.1 70.5c-2.7 0-5.1-.6-7.1-2.3-1.9-1.7-2.9-3.9-2.2-6.5.5-2 2-3.3 3.8-4.3 2.8-1.5 5.8-1.9 8.9-1.1.3.1.6.2.9.4l3 2.1c2.3 1.8 2.9 4.1 1.9 6.9-.6 2-2.1 3.1-4 3.8-1.7.8-3.5 1-5.2 1zM37.5 36.7c0-1.3.3-2.6.9-3.8 1.3-2.6 4.1-3.6 6.8-2.3 2.2 1 3.6 2.8 4.5 4.9 1.1 2.6 1.4 5.3.3 7.9-.7 1.6-1.8 2.8-3.6 3.2-1.7.4-3.1-.1-4.5-1.1-2.4-1.8-3.7-4.2-4.2-7.1-.2-.5-.2-1.1-.2-1.7z"/></svg>