<?xml version="1.0" encoding="utf-8"?>
<!-- Generator: Adobe Illustrator 17.1.0, SVG Export Plug-In . SVG Version: 6.00 Build 0)  -->
<!DOCTYPE svg PUBLIC "-//W3C//DTD SVG 1.1//EN" "http://www.w3.org/Graphics/SVG/1.1/DTD/svg11.dtd">
<svg version="1.1" id="Layer_1" xmlns="http://www.w3.org/2000/svg" xmlns:xlink="http://www.w3.org/1999/xlink" x="0px" y="0px"
	 viewBox="0 0 100 100" enable-background="new 0 0 100 100" xml:space="preserve">
<g>
	<path d="M99,50c0,27.1-22.1,49.4-49.8,49C22.7,98.6,0.9,77.1,1,49.9C1,22.5,23.4,0.6,50.8,1C77.6,1.4,99,23.2,99,50z M45.4,54.6
		c-0.9,0-1.7,0-2.5,0c-2.4,0-4.6,0.5-6.8,1.5c-2.5,1.2-4.6,2.8-5.8,5.4c-1.4,2.9-0.8,5.8,1.7,7.9c1.2,1,2.5,1.7,4,2.2
		c3.2,1.1,6.5,1.4,9.8,1.1c2.5-0.2,4.8-0.9,6.9-2.2c5-3.1,5.7-8.3,3.6-12.8c-0.8-1.7-2.2-2.8-3.6-3.9c-1.1-0.9-2.1-1.9-3.1-2.9
		c-1.2-1.3-0.7-2.9,0.1-3.8c0.6-0.6,1.3-1.2,2-1.8c2.7-2.3,4.1-5.1,3.6-8.7c-0.3-2-1-3.9-2.6-5.3c-0.4-0.4-0.9-0.7-1.4-1.1
		c0.9,0,1.8-0.1,2.7,0c0.9,0.1,1.7-0.1,2.4-0.8c0.5-0.5,1.1-0.8,1.7-1.2c0.1-0.1,0.2-0.1,0.3-0.2c0,0-0.1-0.1-0.1-0.1
		c-0.1,0-0.3,0-0.4,0c-4.5,0-9-0.1-13.5,0c-3.5,0.1-6.5,1.3-9,3.8c-2.3,2.3-3.4,5.1-2.7,8.4c0.9,4.7,4.7,7.9,9.5,8.1
		c0.7,0,1.3,0,2,0C43.3,51.3,43.3,51.4,45.4,54.6z M67.3,41.8c-1.4,0-2.8,0-4.1,0c-0.1,0-0.3,0.3-0.3,0.4c0,1,0,1.9,0,2.9
		c0,0.7,0,1.3,0,2c-0.3,0-0.4,0-0.6,0c-1.4,0-2.8,0-4.3,0c-0.4,0-0.5,0.1-0.5,0.5c0,1.1,0,2.3,0,3.4c0,0.1,0,0.3,0.1,0.5
		c1.8,0,3.6,0,5.4,0c0,1.8,0,3.6,0,5.3c1.5,0,2.9,0,4.4,0c0-1.8,0-3.5,0-5.3c1.8,0,3.6,0,5.4,0c0-1.4,0-2.8,0-4.1
		c0-0.4-0.3-0.3-0.5-0.3c-1.2,0-2.4,0-3.6,0c-0.4,0-0.9,0-1.3,0C67.3,45.4,67.3,43.6,67.3,41.8z"/>
	<path d="M44.1,70.5c-2.7,0-5.1-0.6-7.1-2.3c-1.9-1.7-2.9-3.9-2.2-6.5c0.5-2,2-3.3,3.8-4.3c2.8-1.5,5.8-1.9,8.9-1.1
		c0.3,0.1,0.6,0.2,0.9,0.4c1,0.7,2,1.4,3,2.1c2.3,1.8,2.9,4.1,1.9,6.9c-0.6,2-2.1,3.1-4,3.8C47.6,70.3,45.8,70.5,44.1,70.5z"/>
	<path d="M37.5,36.7c0-1.3,0.3-2.6,0.9-3.8c1.3-2.6,4.1-3.6,6.8-2.3c2.2,1,3.6,2.8,4.5,4.9c1.1,2.6,1.4,5.3,0.3,7.9
		c-0.7,1.6-1.8,2.8-3.6,3.2c-1.7,0.4-3.1-0.1-4.5-1.1c-2.4-1.8-3.7-4.2-4.2-7.1C37.5,37.9,37.5,37.3,37.5,36.7z"/>
</g>
</svg>
