<svg xmlns="http://www.w3.org/2000/svg" viewBox="0 0 100 100" enable-background="new 0 0 100 100"><path d="M98.7 50.1c0 26.7-21.4 48.4-48 48.9C23.3 99.4 1.1 77.5 1 50.2.9 23.1 22.7 1.6 49.1 1.2 76.7.8 98.7 23.1 98.7 50.1zm-55.6-12V42c0 8.6 0 17.3-.1 25.9 0 .5.1.7.7.7h9.5c.7 0 .7 0 .7-.7V51.3c0-1.1.3-2.1.9-3 1.3-1.9 3-2.6 5.2-2.4 2.2.3 3.5 1.6 4.1 3.7.3 1 .4 2.1.4 3.2V68c0 .5.1.6.6.6h9.7c.5 0 .6-.1.6-.6V51.9c0-1.6-.2-3.3-.5-4.8-1.3-5.9-5.6-9.2-11.6-9.2-2.6 0-5 .6-7.1 2.1-.9.6-1.7 1.5-2.4 2.4v-4.2c-3.6-.1-7.2-.1-10.7-.1zm-15.4 0v30c0 .4.1.5.5.5h8.5c.4 0 .6-.1.6-.6V38.6c0-.5-.2-.6-.6-.5h-9zm10.4-9c0-2.2-1.2-4.2-3.3-4.9-1.8-.7-3.6-.7-5.4.1-2 .9-3 2.5-3 4.7s1 3.8 2.9 4.8c1.3.6 2.7.7 4.1.5 2.8-.5 4.7-2.6 4.7-5.2z"/></svg>