<?xml version="1.0" encoding="utf-8"?>
<!-- Generator: Adobe Illustrator 17.1.0, SVG Export Plug-In . SVG Version: 6.00 Build 0)  -->
<!DOCTYPE svg PUBLIC "-//W3C//DTD SVG 1.1//EN" "http://www.w3.org/Graphics/SVG/1.1/DTD/svg11.dtd">
<svg version="1.1" id="Layer_1" xmlns="http://www.w3.org/2000/svg" xmlns:xlink="http://www.w3.org/1999/xlink" x="0px" y="0px"
	 viewBox="0 0 100 100" enable-background="new 0 0 100 100" xml:space="preserve">
<path d="M98.7,50.1c0,26.7-21.4,48.4-48,48.9C23.3,99.4,1.1,77.5,1,50.2C0.9,23.1,22.7,1.6,49.1,1.2C76.7,0.8,98.7,23.1,98.7,50.1z
	 M43.1,38.1c0,1.3,0,2.6,0,3.9c0,8.6,0,17.3-0.1,25.9c0,0.5,0.1,0.7,0.7,0.7c3.2,0,6.3,0,9.5,0c0.7,0,0.7,0,0.7-0.7
	c0-5.5,0-11.1,0-16.6c0-1.1,0.3-2.1,0.9-3c1.3-1.9,3-2.6,5.2-2.4c2.2,0.3,3.5,1.6,4.1,3.7c0.3,1,0.4,2.1,0.4,3.2
	c0,5.1,0,10.2,0,15.2c0,0.5,0.1,0.6,0.6,0.6c3.2,0,6.4,0,9.7,0c0.5,0,0.6-0.1,0.6-0.6c0-5.4,0-10.7,0-16.1c0-1.6-0.2-3.3-0.5-4.8
	c-1.3-5.9-5.6-9.2-11.6-9.2c-2.6,0-5,0.6-7.1,2.1c-0.9,0.6-1.7,1.5-2.4,2.4c0-1.4,0-2.8,0-4.2C50.2,38.1,46.6,38.1,43.1,38.1z
	 M27.7,38.1c0,0.2,0,0.3,0,0.5c0,9.8,0,19.6,0,29.5c0,0.4,0.1,0.5,0.5,0.5c2.8,0,5.7,0,8.5,0c0.4,0,0.6-0.1,0.6-0.6
	c0-9.8,0-19.6,0-29.4c0-0.5-0.2-0.6-0.6-0.5c-2.8,0-5.7,0-8.5,0C28.1,38.1,27.9,38.1,27.7,38.1z M38.1,29.1c0-2.2-1.2-4.2-3.3-4.9
	c-1.8-0.7-3.6-0.7-5.4,0.1c-2,0.9-3,2.5-3,4.7c0,2.2,1,3.8,2.9,4.8c1.3,0.6,2.7,0.7,4.1,0.5C36.2,33.8,38.1,31.7,38.1,29.1z"/>
</svg>
