<?xml version="1.0" encoding="utf-8"?>
<!-- Generator: Adobe Illustrator 17.1.0, SVG Export Plug-In . SVG Version: 6.00 Build 0)  -->
<!DOCTYPE svg PUBLIC "-//W3C//DTD SVG 1.1//EN" "http://www.w3.org/Graphics/SVG/1.1/DTD/svg11.dtd">
<svg version="1.1" id="Layer_1" xmlns="http://www.w3.org/2000/svg" xmlns:xlink="http://www.w3.org/1999/xlink" x="0px" y="0px"
	 viewBox="0 0 100 100" enable-background="new 0 0 100 100" xml:space="preserve">
<g>
	<path d="M2.5,99.2c0-1.2,0-2.3,0-3.4c0-4.3,0.5-8.5,1.6-12.7c1.2-4.5,3.2-8.6,6.2-12.1c3.7-4.2,8.2-6.9,13.7-7.9
		c1.3-0.2,2.6-0.3,4-0.3c5.6-0.1,11.1-0.3,16.7-0.3c3.7,0,7.5,0,11.2,0.1c3.8,0.1,7.6,0.2,11.4,0.3c2.5,0.1,5.1,0.2,7.6,0.5
		c9.4,1.3,16.1,6.3,19.8,15.1c1.4,3.4,2.2,6.9,2.6,10.6c0.3,3.2,0.4,6.4,0.1,9.6c-0.1,0.7,0,0.7-0.7,0.7c-24.9,0-49.7,0-74.6,0
		c-6.2,0-12.5,0-18.7,0C3,99.2,2.8,99.2,2.5,99.2z"/>
	<path d="M77.5,27.9c0,15-12.2,27.1-27.2,27.1c-15-0.1-27.1-12.3-27-27.4c0.1-14.9,12.3-27,27.5-26.8C65.5,0.9,77.5,12.9,77.5,27.9z
		"/>
</g>
</svg>
