<svg xmlns="http://www.w3.org/2000/svg" viewBox="0 0 100 100" enable-background="new 0 0 100 100"><path d="M2.5 99.2v-3.4c0-4.3.5-8.5 1.6-12.7 1.2-4.5 3.2-8.6 6.2-12.1 3.7-4.2 8.2-6.9 13.7-7.9 1.3-.2 2.6-.3 4-.3 5.6-.1 11.1-.3 16.7-.3 3.7 0 7.5 0 11.2.1l11.4.3c2.5.1 5.1.2 7.6.5 9.4 1.3 16.1 6.3 19.8 15.1 1.4 3.4 2.2 6.9 2.6 10.6.3 3.2.4 6.4.1 9.6-.1.7 0 .7-.7.7H3.4c-.4-.2-.6-.2-.9-.2zM77.5 27.9c0 15-12.2 27.1-27.2 27.1-15-.1-27.1-12.3-27-27.4C23.4 12.7 35.6.6 50.8.8c14.7.1 26.7 12.1 26.7 27.1z"/></svg>