<?xml version="1.0" encoding="utf-8"?>
<!-- Generator: Adobe Illustrator 17.1.0, SVG Export Plug-In . SVG Version: 6.00 Build 0)  -->
<!DOCTYPE svg PUBLIC "-//W3C//DTD SVG 1.0//EN" "http://www.w3.org/TR/2001/REC-SVG-20010904/DTD/svg10.dtd">
<svg version="1.0" id="Layer_1" xmlns="http://www.w3.org/2000/svg" xmlns:xlink="http://www.w3.org/1999/xlink" x="0px" y="0px"
	 viewBox="0 0 100 100" enable-background="new 0 0 100 100" xml:space="preserve">
<path style="box-shadow:#000 10px 10px 10px" d="M49.8,2.2c26.5,0,48.1,21.7,47.7,48.4c-0.4,25.9-21.6,47.1-48.1,46.9c-26-0.2-47.2-21.3-47.2-47.7
	C2.2,23.3,23.6,2.2,49.8,2.2z M40.7,51.3c0,0.2,0,0.3,0,0.5c0,7.5,0,15,0,22.4c0,1.1,0.4,1.8,1.2,2.1c0.9,0.4,1.6,0,2.3-0.6
	c8.3-8.3,16.7-16.7,25-25c1-1,0.9-2.2-0.1-3.1c-5.3-4.5-10.7-8.9-16-13.4c-3-2.5-6.1-5-9.1-7.6c-0.6-0.5-1.3-0.7-2.1-0.4
	c-0.9,0.4-1.2,1.2-1.2,2.1C40.7,36.1,40.7,43.7,40.7,51.3z"/>
</svg>
