<?xml version="1.0" encoding="utf-8"?>
<!-- Generator: Adobe Illustrator 17.1.0, SVG Export Plug-In . SVG Version: 6.00 Build 0)  -->
<!DOCTYPE svg PUBLIC "-//W3C//DTD SVG 1.1//EN" "http://www.w3.org/Graphics/SVG/1.1/DTD/svg11.dtd">
<svg version="1.1" id="Layer_1" xmlns="http://www.w3.org/2000/svg" xmlns:xlink="http://www.w3.org/1999/xlink" x="0px" y="0px"
	 viewBox="0 0 100 100" enable-background="new 0 0 100 100" xml:space="preserve">
<path d="M100,84.7c-4.1,4.1-8.1,8.3-12.2,12.4c-4.3-4.2-8.7-8.5-13-12.7c-4.3-4.2-8.6-8.4-12.9-12.6c-1.4,0.7-2.7,1.5-4,2.2
	c-4,2-8.2,3.2-12.7,3.6c-10.2,1-19.4-1.6-27.4-7.9C10.4,63.9,5.8,56.4,4,47.1c-1.9-10-0.1-19.4,5.5-27.9
	c5.7-8.7,13.7-14.1,23.9-16.4c3.2-0.7,6.5-1,9.8-0.8c9.2,0.5,17.2,3.9,24,10.3c5.8,5.4,9.5,12.1,11.1,19.9c0.4,2,0.6,4.1,0.7,6.1
	c0.3,6.6-1,12.8-3.9,18.6c-0.3,0.6-0.7,1.3-1,1.9c-0.2,0.3-0.2,0.4,0.1,0.7c2.7,2.6,5.3,5.2,8,7.8c2.3,2.2,4.6,4.5,6.9,6.7
	c3.6,3.5,7.1,6.9,10.7,10.4C99.8,84.5,99.9,84.6,100,84.7z M15.7,39.8c0,14.1,11.4,25.6,25.5,25.6c14.2,0,25.6-11.4,25.6-25.5
	c0-14.5-11.7-25.3-25.1-25.6C27.3,14,15.6,25.7,15.7,39.8z"/>
</svg>
