<?xml version="1.0" encoding="utf-8"?>
<!-- Generator: Adobe Illustrator 17.1.0, SVG Export Plug-In . SVG Version: 6.00 Build 0)  -->
<!DOCTYPE svg PUBLIC "-//W3C//DTD SVG 1.1//EN" "http://www.w3.org/Graphics/SVG/1.1/DTD/svg11.dtd">
<svg version="1.1" id="Layer_1" xmlns="http://www.w3.org/2000/svg" xmlns:xlink="http://www.w3.org/1999/xlink" x="0px" y="0px"
	 viewBox="0 0 100 100" enable-background="new 0 0 100 100" xml:space="preserve">
<path d="M98,20c-0.1,8.8-6.3,16.2-15,17.7c-5.3,0.9-10-0.4-14.2-3.7c-0.3-0.3-0.5-0.3-0.9-0.1C58,39.1,48.2,44.2,38.3,49.4
	c-0.4,0.2-0.6,0.4-0.5,0.8c0.1,0.5,0,0.9-0.1,1.4c-0.1,0.5,0.1,0.7,0.5,0.9c3.9,1.9,7.8,3.8,11.7,5.7c5.9,2.9,11.8,5.7,17.8,8.6
	c0.3,0.2,0.5,0.1,0.8-0.1c3.1-2.5,6.6-3.9,10.6-4.1c9.1-0.5,17.2,6.2,18.5,15.2c1.4,9.5-4.5,18.1-13.9,20.2
	c-9.9,2.2-19.4-4.2-21.4-13.8c-0.3-1.4-0.3-2.8-0.4-4.2c0-0.3-0.1-0.5-0.4-0.6c-10.1-4.9-20.2-9.8-30.3-14.7
	c-0.3-0.2-0.6-0.1-0.8,0.1c-10.2,7.5-24.7,2.5-28-9.7c-2.7-10.2,3.7-20.2,13.7-22.2c5.6-1.1,10.6,0.2,15.1,3.8
	c0.3,0.2,0.5,0.3,0.8,0.1c9.3-4.9,18.6-9.7,27.9-14.6c0.5-0.3,1.1-0.6,1.6-0.8c0.3-0.1,0.4-0.3,0.4-0.7c-0.1-4.9,1.4-9.1,4.7-12.7
	c3.8-4.1,8.6-6,14.2-5.8C89.5,2.6,96.5,9,97.7,17.4C97.9,18.2,97.9,19.1,98,20z"/>
</svg>
