<svg xmlns="http://www.w3.org/2000/svg" viewBox="0 0 100 100" enable-background="new 0 0 100 100"><path d="M98 20c-.1 8.8-6.3 16.2-15 17.7-5.3.9-10-.4-14.2-3.7-.3-.3-.5-.3-.9-.1-9.9 5.2-19.7 10.3-29.6 15.5-.4.2-.6.4-.5.8.1.5 0 .9-.1 1.4-.1.5.1.7.5.9l11.7 5.7c5.9 2.9 11.8 5.7 17.8 8.6.3.2.5.1.8-.1 3.1-2.5 6.6-3.9 10.6-4.1 9.1-.5 17.2 6.2 18.5 15.2C99 87.3 93.1 95.9 83.7 98c-9.9 2.2-19.4-4.2-21.4-13.8-.3-1.4-.3-2.8-.4-4.2 0-.3-.1-.5-.4-.6L31.2 64.7c-.3-.2-.6-.1-.8.1-10.2 7.5-24.7 2.5-28-9.7-2.7-10.2 3.7-20.2 13.7-22.2 5.6-1.1 10.6.2 15.1 3.8.3.2.5.3.8.1 9.3-4.9 18.6-9.7 27.9-14.6.5-.3 1.1-.6 1.6-.8.3-.1.4-.3.4-.7-.1-4.9 1.4-9.1 4.7-12.7 3.8-4.1 8.6-6 14.2-5.8 8.7.4 15.7 6.8 16.9 15.2.2.8.2 1.7.3 2.6z"/></svg>