<?xml version="1.0" encoding="utf-8"?>
<!-- Generator: Adobe Illustrator 17.1.0, SVG Export Plug-In . SVG Version: 6.00 Build 0)  -->
<!DOCTYPE svg PUBLIC "-//W3C//DTD SVG 1.1//EN" "http://www.w3.org/Graphics/SVG/1.1/DTD/svg11.dtd">
<svg version="1.1" id="Layer_1" xmlns="http://www.w3.org/2000/svg" xmlns:xlink="http://www.w3.org/1999/xlink" x="0px" y="0px"
	 viewBox="0 0 100 100" enable-background="new 0 0 100 100" xml:space="preserve">
<path d="M97.4,49.6c0,26.1-20.9,47.4-46.9,47.8C23.7,97.9,2,76.5,1.9,49.8C1.8,23.3,23.1,2.3,48.9,1.9C75.9,1.5,97.4,23.2,97.4,49.6
	z M74.9,31.4c-0.1,0-0.1,0-0.2,0c-0.1,0.1-0.3,0.1-0.4,0.2c-1.9,1.1-4,1.8-6.1,2.3c-0.3,0.1-0.5,0-0.7-0.2c-2.6-2.5-5.7-3.6-9.3-3.2
	c-5.9,0.6-10.3,6-9.8,11.9c0,0.6,0.1,1.1,0.2,1.8c-9.3-0.7-17-4.6-23-11.7c-1.1,2-1.6,4-1.5,6.2c0.2,3.6,1.8,6.4,4.8,8.7
	c-1.8-0.1-3.3-0.6-4.9-1.4c0,2.2,0.5,4.1,1.5,5.9c1.6,2.8,4,4.5,7.2,5.3c-1.7,0.4-3.2,0.4-4.9,0.2c1.9,4.8,5.3,7.4,10.4,7.9
	c-4.9,3.7-10.3,5.1-16.4,4.6c0.1,0.2,0.3,0.3,0.5,0.4c6.6,4,13.7,5.4,21.3,4.4c7.2-0.9,13.4-4,18.3-9.3c6.1-6.5,9.1-14.3,9-23.3
	c0-0.4,0.1-0.6,0.4-0.8c1.9-1.4,3.5-3.1,4.9-5.1c0.1-0.1,0.1-0.2,0.3-0.5c-2.1,0.9-4,1.5-6.2,1.7C72.5,36,74.1,34,74.9,31.4z"/>
</svg>
