<svg xmlns="http://www.w3.org/2000/svg" viewBox="0 0 100 100" enable-background="new 0 0 100 100"><path d="M97.4 49.6c0 26.1-20.9 47.4-46.9 47.8C23.7 97.9 2 76.5 1.9 49.8c-.1-26.5 21.2-47.5 47-47.9 27-.4 48.5 21.3 48.5 47.7zM74.9 31.4h-.2c-.1.1-.3.1-.4.2-1.9 1.1-4 1.8-6.1 2.3-.3.1-.5 0-.7-.2-2.6-2.5-5.7-3.6-9.3-3.2-5.9.6-10.3 6-9.8 11.9 0 .6.1 1.1.2 1.8-9.3-.7-17-4.6-23-11.7-1.1 2-1.6 4-1.5 6.2.2 3.6 1.8 6.4 4.8 8.7-1.8-.1-3.3-.6-4.9-1.4 0 2.2.5 4.1 1.5 5.9 1.6 2.8 4 4.5 7.2 5.3-1.7.4-3.2.4-4.9.2 1.9 4.8 5.3 7.4 10.4 7.9-4.9 3.7-10.3 5.1-16.4 4.6.1.2.3.3.5.4 6.6 4 13.7 5.4 21.3 4.4 7.2-.9 13.4-4 18.3-9.3 6.1-6.5 9.1-14.3 9-23.3 0-.4.1-.6.4-.8 1.9-1.4 3.5-3.1 4.9-5.1.1-.1.1-.2.3-.5-2.1.9-4 1.5-6.2 1.7 2.2-1.4 3.8-3.4 4.6-6z"/></svg>