<svg xmlns="http://www.w3.org/2000/svg" viewBox="0 0 100 100" enable-background="new 0 0 100 100"><path d="M99.4 50c0 27.3-22.3 49.9-50.3 49.4C22.4 99 .5 77.3.6 49.8.7 22.2 23.2.1 50.8.6 77.8 1 99.5 23 99.4 50zM50.1 73h20.1c.4 0 .8 0 1.2-.1 4.1-.4 7.3-3.9 7.3-8.1v-8.5c0-1.4-.3-2.6-1-3.8-1.7-2.9-4.3-4.3-7.6-4.3H31c-.7 0-1.3 0-2 .1-3.8.3-7.2 3.7-7.4 7.5-.1 3.2 0 6.3 0 9.5 0 .5.1.9.2 1.4.9 3.8 4.2 6.3 8.1 6.3h20.2zm-16-48.9c.1.3.2.6.2.8 1.2 3.5 2.3 7 3.5 10.5.1.3.2.7.2 1v6.7c0 .5.1.6.6.6h2.1c.7 0 .7 0 .7-.7v-6.9c0-.3.1-.7.2-1 1.1-3.4 2.3-6.8 3.4-10.2.1-.2.1-.5.2-.7h-2.8c-.4 0-.6.1-.7.5-.6 2.2-1.2 4.5-1.8 6.7 0 .2-.1.3-.2.5-.2-.2-.3-.5-.3-.7l-1.8-6.6c0-.2-.3-.4-.4-.4-1-.1-2-.1-3.1-.1zm11.4 12.2v3.9c0 1.8 1 3.1 2.7 3.6.8.2 1.6.2 2.4.2 2.1-.2 3.4-1.7 3.4-3.8v-7.6c0-1-.4-1.9-1.2-2.6-1.3-1.1-2.8-1.3-4.4-.9-2 .4-3 1.7-3 3.8.1 1 .1 2.2.1 3.4zm16.2-7.1v10.1c0 .8-.4 1.2-1 1.6-1 .6-1.5.3-1.5-.8V29.3h-3v12.5c.1 1.5 1.1 2.2 2.6 2 .9-.2 1.7-.6 2.4-1.2.1-.1.2-.2.5-.4v1.5h3V29.4c-1-.2-1.9-.2-3-.2zM53.8 68.1c0 .3 0 .6-.1.9h-2.5V51.5h2.5v5.6c.2-.2.3-.2.4-.3.9-.8 1.8-1.2 3-.7 1.1.4 1.5 1.4 1.5 2.5.1 2.7.1 5.5 0 8.2-.1 2.1-2.1 3.1-3.9 1.9-.2-.1-.5-.3-.9-.6zm0-5.6v3.7c0 .2.1.5.3.7.4.3.9.5 1.4.3.5-.2.5-.7.5-1.2V58.8c-.1-.6-.6-.9-1.3-.8-.6.1-.9.4-.9 1v3.5zM67.7 62.9h-4.9v3.5c0 .6.5.9 1.1.9.6 0 1-.3 1.1-.9.1-.5.1-1 .1-1.5h2.5c.4 2.4-.8 4.4-3.2 4.5-1.2.1-2.4 0-3.3-1-.6-.7-1-1.5-1-2.4 0-2.3-.1-4.5 0-6.8.1-2.2 2.2-3.7 4.4-3.3 1.9.3 3.1 1.5 3.1 3.5.1 1 .1 2.2.1 3.5zM65 60.8c0-.7.1-1.3 0-2-.1-.6-.5-.9-1.1-.9-.6 0-1 .3-1.1.9-.1.6-.1 1.3-.1 2H65zM46.7 67.7c-.6.4-1.2.9-1.8 1.2-.3.2-.7.3-1.1.3-1 .1-1.6-.4-1.8-1.4-.1-.3-.1-.5-.1-.8V56h2.5v9.9c0 1 .5 1.3 1.4.8.6-.4 1-.8.9-1.6-.1-2.8 0-5.6 0-8.4v-.6h2.5V69h-2.5v-1.3zM40.6 51.5v2.4h-3V69h-2.9V54.6c0-.5-.1-.7-.6-.7h-2.4v-2.4h8.9zM50.9 36.4v3.8c0 .8-.4 1.3-1.2 1.3-.7 0-1.2-.4-1.2-1.2v-7.8c0-.7.5-1 1.2-1s1.2.4 1.2 1.1v3.8z"/></svg>