<?xml version="1.0" encoding="utf-8"?>
<!-- Generator: Adobe Illustrator 17.1.0, SVG Export Plug-In . SVG Version: 6.00 Build 0)  -->
<!DOCTYPE svg PUBLIC "-//W3C//DTD SVG 1.1//EN" "http://www.w3.org/Graphics/SVG/1.1/DTD/svg11.dtd">
<svg version="1.1" id="Layer_1" xmlns="http://www.w3.org/2000/svg" xmlns:xlink="http://www.w3.org/1999/xlink" x="0px" y="0px"
	 viewBox="0 0 100 100" enable-background="new 0 0 100 100" xml:space="preserve">
<g>
	<path d="M99.4,50c0,27.3-22.3,49.9-50.3,49.4C22.4,99,0.5,77.3,0.6,49.8C0.7,22.2,23.2,0.1,50.8,0.6C77.8,1,99.5,23,99.4,50z
		 M50.1,73c6.7,0,13.4,0,20.1,0c0.4,0,0.8,0,1.2-0.1c4.1-0.4,7.3-3.9,7.3-8.1c0-2.8,0-5.6,0-8.5c0-1.4-0.3-2.6-1-3.8
		c-1.7-2.9-4.3-4.3-7.6-4.3c-13,0-26.1,0-39.1,0c-0.7,0-1.3,0-2,0.1c-3.8,0.3-7.2,3.7-7.4,7.5c-0.1,3.2,0,6.3,0,9.5
		c0,0.5,0.1,0.9,0.2,1.4c0.9,3.8,4.2,6.3,8.1,6.3C36.6,73,43.3,73,50.1,73z M34.1,24.1c0.1,0.3,0.2,0.6,0.2,0.8
		c1.2,3.5,2.3,7,3.5,10.5c0.1,0.3,0.2,0.7,0.2,1c0,2.2,0,4.5,0,6.7c0,0.5,0.1,0.6,0.6,0.6c0.7,0,1.4,0,2.1,0c0.7,0,0.7,0,0.7-0.7
		c0-2.3,0-4.6,0-6.9c0-0.3,0.1-0.7,0.2-1c1.1-3.4,2.3-6.8,3.4-10.2c0.1-0.2,0.1-0.5,0.2-0.7c-1,0-1.9,0-2.8,0
		c-0.4,0-0.6,0.1-0.7,0.5c-0.6,2.2-1.2,4.5-1.8,6.7c0,0.2-0.1,0.3-0.2,0.5c-0.2-0.2-0.3-0.5-0.3-0.7c-0.6-2.2-1.2-4.4-1.8-6.6
		c0-0.2-0.3-0.4-0.4-0.4C36.2,24.1,35.2,24.1,34.1,24.1z M45.5,36.3c0,1.3,0,2.6,0,3.8c0,0,0,0.1,0,0.1c0,1.8,1,3.1,2.7,3.6
		c0.8,0.2,1.6,0.2,2.4,0.2c2.1-0.2,3.4-1.7,3.4-3.8c0-2.5,0-5.1,0-7.6c0-1-0.4-1.9-1.2-2.6c-1.3-1.1-2.8-1.3-4.4-0.9
		c-2,0.4-3,1.7-3,3.8C45.5,33.9,45.5,35.1,45.5,36.3z M61.7,29.2c0,0.2,0,0.4,0,0.7c0,3.1,0,6.3,0,9.4c0,0.8-0.4,1.2-1,1.6
		c-1,0.6-1.5,0.3-1.5-0.8c0-3.4,0-6.8,0-10.2c0-0.2,0-0.4,0-0.6c-1,0-2,0-3,0c0,0.2,0,0.4,0,0.6c0,3.8,0,7.6,0,11.4
		c0,0.2,0,0.4,0,0.5c0.1,1.5,1.1,2.2,2.6,2c0.9-0.2,1.7-0.6,2.4-1.2c0.1-0.1,0.2-0.2,0.5-0.4c0,0.6,0,1,0,1.5c1,0,2,0,3,0
		c0-4.8,0-9.6,0-14.3C63.7,29.2,62.8,29.2,61.7,29.2z"/>
	<path d="M53.8,68.1c0,0.3,0,0.6-0.1,0.9c-0.8,0-1.6,0-2.5,0c0-5.8,0-11.6,0-17.5c0.8,0,1.6,0,2.5,0c0,1.8,0,3.7,0,5.6
		c0.2-0.2,0.3-0.2,0.4-0.3c0.9-0.8,1.8-1.2,3-0.7c1.1,0.4,1.5,1.4,1.5,2.5c0.1,2.7,0.1,5.5,0,8.2c-0.1,2.1-2.1,3.1-3.9,1.9
		C54.5,68.6,54.2,68.4,53.8,68.1z M53.8,62.5c0,1.2,0,2.5,0,3.7c0,0.2,0.1,0.5,0.3,0.7c0.4,0.3,0.9,0.5,1.4,0.3
		c0.5-0.2,0.5-0.7,0.5-1.2c0-2.2,0-4.4,0-6.6c0-0.2,0-0.4,0-0.6c-0.1-0.6-0.6-0.9-1.3-0.8c-0.6,0.1-0.9,0.4-0.9,1
		C53.8,60.2,53.8,61.3,53.8,62.5z"/>
	<path d="M67.7,62.9c-1.7,0-3.3,0-4.9,0c0,1.2,0,2.3,0,3.5c0,0.6,0.5,0.9,1.1,0.9c0.6,0,1-0.3,1.1-0.9c0.1-0.5,0.1-1,0.1-1.5
		c0.8,0,1.7,0,2.5,0c0.4,2.4-0.8,4.4-3.2,4.5c-1.2,0.1-2.4,0-3.3-1c-0.6-0.7-1-1.5-1-2.4c0-2.3-0.1-4.5,0-6.8
		c0.1-2.2,2.2-3.7,4.4-3.3c1.9,0.3,3.1,1.5,3.1,3.5C67.7,60.4,67.7,61.6,67.7,62.9z M65,60.8c0-0.7,0.1-1.3,0-2
		c-0.1-0.6-0.5-0.9-1.1-0.9c-0.6,0-1,0.3-1.1,0.9c-0.1,0.6-0.1,1.3-0.1,2C63.5,60.8,64.3,60.8,65,60.8z"/>
	<path d="M46.7,67.7c-0.6,0.4-1.2,0.9-1.8,1.2c-0.3,0.2-0.7,0.3-1.1,0.3c-1,0.1-1.6-0.4-1.8-1.4c-0.1-0.3-0.1-0.5-0.1-0.8
		c0-3.5,0-7.1,0-10.6c0-0.1,0-0.2,0-0.4c0.8,0,1.6,0,2.5,0c0,0.2,0,0.4,0,0.6c0,3.1,0,6.2,0,9.3c0,1,0.5,1.3,1.4,0.8
		c0.6-0.4,1-0.8,0.9-1.6c-0.1-2.8,0-5.6,0-8.4c0-0.2,0-0.4,0-0.6c0.8,0,1.6,0,2.5,0c0,4.3,0,8.6,0,12.9c-0.8,0-1.6,0-2.5,0
		C46.7,68.6,46.7,68.2,46.7,67.7z"/>
	<path d="M40.6,51.5c0,0.8,0,1.6,0,2.4c-1,0-2,0-3,0c0,5.1,0,10,0,15.1c-1,0-1.9,0-2.9,0c0-0.2,0-0.4,0-0.6c0-4.6,0-9.2,0-13.8
		c0-0.5-0.1-0.7-0.6-0.7c-0.8,0-1.6,0-2.4,0c0-0.8,0-1.6,0-2.4C34.7,51.5,37.7,51.5,40.6,51.5z"/>
	<path d="M50.9,36.4c0,1.3,0,2.5,0,3.8c0,0.8-0.4,1.3-1.2,1.3c-0.7,0-1.2-0.4-1.2-1.2c0-2.6,0-5.2,0-7.8c0-0.7,0.5-1,1.2-1
		c0.7,0,1.2,0.4,1.2,1.1C50.9,33.8,50.9,35.1,50.9,36.4z"/>
</g>
</svg>
