<svg xmlns="http://www.w3.org/2000/svg" width="85.2" height="20.1" viewBox="0 0 85.2 20.1"><g><path fill="#8DC63F" d="M11 12.6v1.8c-1 .6-2 .9-3 .9s-1.6-.4-1.8-1.1c-1.1.8-2.2 1.1-3.4 1.1-.8 0-1.5-.2-2-.7-.5-.5-.8-1.1-.8-1.8 0-.9.3-1.6.9-2.1.6-.5 2.3-1.2 5.2-2.1.1-1.1-.5-1.7-1.8-1.7-1.4 0-2.6.6-3.8 1.7V6C1.9 5.2 3.4 4.8 5 4.8c2.9 0 4.3 1 4.3 3.1v4.6c0 .5.2.7.5.7s.7-.2 1.2-.6zm-4.9.1v-2.4c-1.1.4-1.8.7-2.2 1-.4.3-.6.7-.6 1.1 0 .3.1.5.3.8.2.2.4.3.7.3.6-.1 1.2-.3 1.8-.8zM15.3 5v.9c.9-.7 1.8-1.1 2.9-1.1 1.3 0 2.5.5 3.4 1.5.9 1 1.4 2.2 1.4 3.6 0 1.6-.5 2.9-1.4 3.9-.9 1-2.1 1.5-3.7 1.5-.9 0-1.8-.2-2.6-.7v5.5h-3.2V5h3.2zm0 2.9v4.6c.6.4 1.2.7 1.9.7.8 0 1.4-.3 1.9-.8.5-.6.7-1.3.7-2.2 0-1-.2-1.7-.6-2.2-.4-.5-1-.8-1.8-.8-.7-.1-1.4.1-2.1.7zM32.4 5v2.2h-3.7v4.2c0 .5.1.9.4 1.2.3.3.7.4 1.2.4.7 0 1.4-.2 2.2-.6v2.3c-1 .4-2 .6-3 .6-1.3 0-2.2-.3-2.9-1-.7-.6-1-1.6-1-2.8V7.2H24v-.6l4.3-4.7h.4V5h3.7z"/><path fill="#A2B69A" d="M34 1.8c0-.5.2-.9.5-1.2.4-.4.8-.6 1.3-.6s.9.2 1.3.5c.3.3.5.8.5 1.2 0 .5-.2.9-.5 1.2-.3.3-.8.5-1.3.5s-.9-.2-1.2-.5c-.4-.3-.6-.7-.6-1.1zM37.4 5v10.1h-3.2V5h3.2zM47.5 5v2.2h-3.7v4.2c0 .5.1.9.4 1.2.3.3.7.4 1.2.4.7 0 1.4-.2 2.2-.6v2.3c-1 .4-2 .6-3 .6-1.3 0-2.2-.3-2.9-1-.7-.6-1-1.6-1-2.8V7.2H39v-.6l4.3-4.7h.4V5h3.8zM56.2 15.1v-1.4c-.9 1.1-2 1.6-3.3 1.6-1.1 0-2-.3-2.7-1-.7-.7-1-1.6-1-2.8V5h3.2v6.2c0 1.3.5 1.9 1.6 1.9.6 0 1.1-.2 1.6-.7.4-.5.6-.8.6-1V5h3.2v10.1h-3.2zM72.3.2v14.9h-3.2v-.8c-.8.7-1.8 1-2.8 1-1.4 0-2.5-.5-3.4-1.5-.9-1-1.4-2.2-1.4-3.8 0-1.5.5-2.8 1.4-3.8.9-1 2.1-1.5 3.6-1.5.9 0 1.8.2 2.7.6V.2h3.1zm-3.2 12.1V7.5c-.6-.4-1.2-.6-1.8-.6-.8 0-1.4.3-1.9.8-.4.6-.7 1.3-.7 2.3 0 .9.2 1.7.7 2.2.4.6 1 .8 1.8.8.7.2 1.3-.1 1.9-.7zM85 12v2c-1.2.9-2.8 1.3-4.6 1.3-1.8 0-3.2-.5-4.3-1.4-1.1-1-1.6-2.2-1.6-3.8 0-1.5.5-2.8 1.5-3.8s2.3-1.5 3.9-1.5 2.9.5 3.9 1.6c1 1 1.5 2.4 1.4 4.2h-7.3c.1.9.4 1.6 1 2.1s1.4.7 2.4.7c1.1 0 2.3-.5 3.7-1.4zm-7.1-3.1h4.4c-.2-1.5-.9-2.2-2.2-2.2-1.3 0-2.1.7-2.2 2.2z"/></g></svg>