<svg xmlns="http://www.w3.org/2000/svg" viewBox="0 0 100 100" enable-background="new 0 0 100 100"><path d="M51.8 46.5c-6.4 0-11.9 1-17.1 3.4-2.4 1.1-4.7 2.6-6.8 4.2-.3.2-.4.5-.3.8.4 3 .8 5.9 1.3 8.9.3 1.9-.6 3.3-2.4 3.6l-2.4.3c-3.7.5-7.4 1-11.2 1.6-2.4.3-4.9.7-7.3 1-1.6.2-2.9-.8-3.2-2.4-.5-3.7-1.1-7.3-1.5-11-.1-.9.1-1.8.2-2.7.4-2.7.9-5.4 1.8-8 .5-1.4 1.3-2.5 2.5-3.4 5.9-4.1 12.3-7.1 19-9.5 5.9-2.1 12-3.5 18.2-4.4 3.6-.5 7.3-1 11-.8 3.4.2 6.8.5 10.2.9 5.8.7 11.5 2 17.1 3.7 4 1.2 7.8 2.7 11.5 4.5 1.1.5 1.9 1.4 2.6 2.3 2.2 2.7 3.4 5.8 3.9 9.1.3 1.7.4 3.4.2 5.1-.3 3.3-.6 6.6-1 9.9-.2 1.5-1.4 2.5-2.9 2.4-2-.1-4-.3-6-.5-2.3-.2-4.7-.4-7-.7-2.7-.3-5.4-.5-8.1-.8-1.6-.2-2.6-1.4-2.5-3 .1-1.4.2-2.7.4-4.1.2-1.9.4-3.9.6-5.8 0-.4-.1-.5-.4-.6-3.6-1.4-7.4-2.5-11.2-3.2-3.3-.4-6.6-.8-9.2-.8z"/></svg>