<svg xmlns="http://www.w3.org/2000/svg" width="87.7" height="17.3" viewBox="0 0 87.7 17.3"><g fill="#0083BE"><path d="M86.4 4.5h.3c.1 0 .2.1.2.2s-.1.2-.2.2h-.3v-.4zm0 .5h.3l.2.5h.3l-.3-.5c.1 0 .2-.1.2-.3 0-.3-.4-.3-.4-.3h-.5v1.2h.2V5zm-.9-.1c0 .6.5 1.1 1.1 1.1.6 0 1.1-.5 1.1-1.1 0-.6-.5-1.1-1.1-1.1-.6 0-1.1.5-1.1 1.1m.2 0c0-.5.4-.9.9-.9s.9.4.9.9-.4.9-.9.9-.9-.4-.9-.9M59.2 0c-1 0-1.9.9-1.9 1.9 0 1.1.8 1.9 1.9 1.9 1 0 1.9-.9 1.9-1.9 0-1-.9-1.9-1.9-1.9M56.3.8L19 2.2l37.3.8c-.1-.3-.2-.7-.2-1.1 0-.4.1-.7.2-1.1"/><path d="M13.1 13L13 5.7c0-2.9-.3-2.9-1.2-2.9-.7 0-1 0-1-.4 0-.3.4-.3.6-.3.3 0 1.6.1 1.9.1.4 0 2.1-.1 2.5-.1.1 0 .4 0 .4.4 0 .3-.2.4-.9.4-1 0-1.4.1-1.3 1.4v12.3c0 .2 0 .7-.4.7-.2 0-.3 0-.7-.5L3 4.3l.1 8.1c0 3.4.3 3.7 1.3 3.8.9.1 1 .1 1 .4 0 .3-.4.3-.6.3-.3 0-1.2-.1-1.9-.1-1.2 0-2.2.1-2.6.1-.1 0-.4 0-.4-.3s.1-.3 1.1-.4c1-.1 1.1-.2 1.1-3.4v-8c.1-1.8-.1-2-1.1-2-.5 0-.9 0-.9-.4 0-.3.3-.3.7-.3.2 0 1.3.1 2 .1.6 0 1.2-.1 1.5-.1.4 0 .6.5.8.7l8 10.2zM22.1 17c-3.6 0-5.7-2.9-5.7-5.5 0-2.7 2.2-5.6 5.6-5.6 2.6 0 5.6 1.8 5.6 5.3 0 3.2-2.3 5.8-5.5 5.8m-.1-.5c1.7 0 3.2-2.2 3.2-5 0-1.6-.8-5-3.4-5-1.7 0-3 1.7-3 4.6 0 2.9 1.4 5.4 3.2 5.4"/><path d="M34 13.9l1.9-4.3c.1-.3.5-1.3.5-1.8 0-.7-.6-.8-1-.9-.6 0-.8 0-.8-.3s.3-.3.6-.3c.2 0 1 .1 1.9.1 1.2 0 1.7-.1 2-.1.1 0 .4 0 .4.3s-.1.3-.8.4c-.3 0-.9.1-1.5 1.6l-3.6 8.2c-.1.3-.2.5-.4.5s-.3-.1-.4-.4l-3.4-8.3c-.6-1.5-.9-1.6-1.6-1.6-.1 0-.4 0-.4-.3s.4-.3.6-.3c.7 0 1.4.1 2.5.1 1.2 0 1.7-.1 2.2-.1.1 0 .5 0 .5.3s-.5.4-.7.4c-.1 0-.8 0-.8.6 0 .3.2.7.2.8l2.1 5.4zM44.9 8.5c0-.8-.1-2-1.2-2-1.3 0-1.9 1.4-2 2-.4 1.1-1.7 1.2-1.7 1.2-.3 0-.5-.2-.5-.5 0-.8 1.5-3.2 5-3.2 2.2 0 2.7.8 2.7 1.7v6.6c0 .7.1 1.3.7 1.3.3 0 .5-.1.7-.2.3-.2.3-.2.4-.2.1 0 .2.1.2.2 0 .6-1.4 1.7-2.4 1.7-.9 0-1.3-.7-1.6-1.3-.2-.5-.3-.5-.3-.5-.1 0-.2.1-.2.1-1 .8-2.2 1.7-3.3 1.7-1.7 0-1.8-1.6-1.8-2 0-1.7 1.2-2.7 4.8-4.2.6-.2.6-.4.6-.8V8.5zm0 3.1c0-.2-.1-.3-.3-.3-.3 0-.9.3-1.3.5-1.5.7-1.5 1.6-1.5 2.1 0 1.1.5 1.6 1 1.6 1 0 2-.9 2-2.5v-1.4zM52.7 13.6c0 1.1.1 2.2 1.3 2.2.4 0 .7-.1 1.5-.6.1-.1.2-.1.3-.1.1 0 .2.1.2.2 0 .4-1.5 1.8-3.2 1.8-1.2 0-2.3-.8-2.3-2.6V7.7c0-.3-.2-.4-.5-.4h-.5c-.1 0-.4 0-.4-.3 0-.2.3-.4.3-.4l.6-.3c.6-.3 1.3-.9 2-2.1.1-.1.2-.3.4-.3.1 0 .3 0 .3.4v1.6c0 .4.1.5.6.5h2c.2 0 .4 0 .3.5 0 .4-.1.5-.4.5-.4 0-.9-.1-2-.1-.4 0-.4.1-.4.5v5.8zM58.1 10c0-1.2-.2-1.5-1.1-1.6-.1 0-.4 0-.4-.3 0-.2.1-.3.4-.4 1.1-.4 1.6-.7 2-1 .2 0 .9-.7 1.1-.7.3 0 .3.3.3.8v7.6c0 1.3 0 1.6 1 1.7.6.1.7.2.7.4 0 .3-.2.3-.4.3-.3 0-1.3-.1-2.4-.1-1 0-2 .1-2.4.1-.2 0-.4 0-.4-.3 0-.2.2-.3.7-.4 1-.1 1-.4 1-1.7V10zM68 17c-3.6 0-5.7-2.9-5.7-5.5 0-2.7 2.2-5.6 5.6-5.6 2.6 0 5.6 1.8 5.6 5.3 0 3.2-2.3 5.8-5.5 5.8m-.1-.5c1.7 0 3.2-2.2 3.2-5 0-1.6-.8-5-3.4-5-1.7 0-3 1.7-3 4.6 0 2.9 1.4 5.4 3.2 5.4"/><path d="M82.6 10.2c0-1.1 0-2.9-2.3-2.9-.7 0-1.4.3-1.9.8-.3.4-.4.8-.4 1.3v5c0 1.3 0 1.6 1 1.8.6.1.7.2.7.4 0 .3-.2.3-.4.3-.3 0-2-.1-2.4-.1-.3 0-2 .1-2.4.1-.2 0-.4 0-.4-.3 0-.2.2-.3.7-.4 1-.1 1-.4 1-1.7V9.9c0-1.1 0-1.6-.7-1.7-.4 0-.6 0-.6-.3 0-.1.1-.2.3-.3.2 0 1.6-.7 2.4-1.5.2-.2.3-.4.5-.4s.3.2.3.4v1.2c0 .4 0 .5.1.5s.3-.1.3-.1C79.8 6.3 80.5 6 81.8 6c1.5 0 3.2.9 3.2 3v5.5c0 1.3 0 1.6 1 1.8.6.1.7.2.7.4 0 .3-.2.3-.4.3-.3 0-2-.1-2.4-.1-.3 0-2 .1-2.4.1-.2 0-.4 0-.4-.3 0-.2.2-.3.7-.4 1-.1 1-.4 1-1.7v-4.4z"/></g></svg>