<svg xmlns="http://www.w3.org/2000/svg" width="108.242" height="51.687" viewBox="0 0 108.242 51.687"><g fill="#0C3C61"><path d="M52.308 29.89l-4.615-11.765H44.72l6.363 15.416h2.383l6.343-15.415H56.9zM98.204 18.015l-6.736 15.417h2.756l5.183-12.203 5.18 12.202h2.845l-6.735-15.417zM6.036 18.125H0v15.308h2.69v-4.92h3.04c3.367 0 6.122-1.793 6.122-5.227v-.043c0-3.084-2.23-5.118-5.816-5.118zM9.12 23.35c0 1.597-1.27 2.734-3.303 2.734H2.69v-5.51h3.127c2.012 0 3.302.94 3.302 2.733v.044zM26.476 23v-.042c0-1.334-.46-2.472-1.268-3.303-.984-.962-2.493-1.53-4.417-1.53h-6.82v15.308h2.69v-5.336h3.366l3.762 5.336h3.192l-4.133-5.795c2.12-.613 3.63-2.122 3.63-4.637zm-9.817 2.712v-5.138h3.913c1.99 0 3.17.896 3.17 2.537v.045c0 1.553-1.224 2.558-3.148 2.558H16.66zM36.327 17.862c-4.7 0-8.025 3.608-8.025 7.916v.044c0 4.31 3.28 7.873 7.982 7.873 4.7 0 8.025-3.608 8.025-7.918v-.043c0-4.307-3.28-7.872-7.983-7.872zm5.16 7.96c0 2.975-2.12 5.38-5.16 5.38s-5.204-2.45-5.204-5.424v-.043c0-2.974 2.12-5.4 5.16-5.4s5.206 2.47 5.206 5.443v.044zM61.815 18.125h2.69v15.308h-2.69zM73.4 31.267c-1.882 0-3.368-.722-4.833-1.99l-1.62 1.925c1.837 1.64 4.047 2.448 6.387 2.448 3.214 0 5.467-1.705 5.467-4.57v-.044c0-2.536-1.662-3.695-4.897-4.482-2.952-.7-3.65-1.225-3.65-2.405v-.045c0-1.006.917-1.815 2.49-1.815 1.4 0 2.778.546 4.155 1.575l1.443-2.034c-1.55-1.246-3.323-1.924-5.553-1.924-3.04 0-5.226 1.816-5.226 4.44v.042c0 2.82 1.838 3.783 5.097 4.57 2.842.656 3.454 1.246 3.454 2.34v.044c0 1.138-1.05 1.925-2.71 1.925zM87.778 33.432V20.618h4.855v-2.493H80.21v2.493h4.857v12.814z"/></g><g fill="#0C3C61"><path d="M52.308 29.89l-4.615-11.765H44.72l6.363 15.416h2.383l6.343-15.415H56.9zM98.204 18.015l-6.736 15.417h2.756l5.183-12.203 5.18 12.202h2.845l-6.735-15.417zM6.036 18.125H0v15.308h2.69v-4.92h3.04c3.367 0 6.122-1.793 6.122-5.227v-.043c0-3.084-2.23-5.118-5.816-5.118zM9.12 23.35c0 1.597-1.27 2.734-3.303 2.734H2.69v-5.51h3.127c2.012 0 3.302.94 3.302 2.733v.044zM26.476 23v-.042c0-1.334-.46-2.472-1.268-3.303-.984-.962-2.493-1.53-4.417-1.53h-6.82v15.308h2.69v-5.336h3.366l3.762 5.336h3.192l-4.133-5.795c2.12-.613 3.63-2.122 3.63-4.637zm-9.817 2.712v-5.138h3.913c1.99 0 3.17.896 3.17 2.537v.045c0 1.553-1.224 2.558-3.148 2.558H16.66zM36.327 17.862c-4.7 0-8.025 3.608-8.025 7.916v.044c0 4.31 3.28 7.873 7.982 7.873 4.7 0 8.025-3.608 8.025-7.918v-.043c0-4.307-3.28-7.872-7.983-7.872zm5.16 7.96c0 2.975-2.12 5.38-5.16 5.38s-5.204-2.45-5.204-5.424v-.043c0-2.974 2.12-5.4 5.16-5.4s5.206 2.47 5.206 5.443v.044zM61.815 18.125h2.69v15.308h-2.69zM73.4 31.267c-1.882 0-3.368-.722-4.833-1.99l-1.62 1.925c1.837 1.64 4.047 2.448 6.387 2.448 3.214 0 5.467-1.705 5.467-4.57v-.044c0-2.536-1.662-3.695-4.897-4.482-2.952-.7-3.65-1.225-3.65-2.405v-.045c0-1.006.917-1.815 2.49-1.815 1.4 0 2.778.546 4.155 1.575l1.443-2.034c-1.55-1.246-3.323-1.924-5.553-1.924-3.04 0-5.226 1.816-5.226 4.44v.042c0 2.82 1.838 3.783 5.097 4.57 2.842.656 3.454 1.246 3.454 2.34v.044c0 1.138-1.05 1.925-2.71 1.925zM87.778 33.432V20.618h4.855v-2.493H80.21v2.493h4.857v12.814z"/></g><path d="M76.04 0C64.055 0 54.918 7.616 51.052 19.222l-.01.058 1.49 3.8S57.056 2.148 78.26 1.515C84.42 1.33 90.05 3.81 94.34 7.59 89.662 2.9 83.19 0 76.04 0zM75.612 51.687c11.986 0 21.123-7.616 24.988-19.22l.027-.015-1.508-3.845S94.597 49.54 73.394 50.172c-6.164.184-11.795-2.297-16.084-6.076 4.683 4.69 11.153 7.59 18.302 7.59z" fill="#79BC43"/><g fill="#0C3C61"><path d="M105.682 18.08v.327h-.566v1.604h-.484v-1.603h-.567v-.327h1.617zM105.998 20.01v-1.93h.68l.438 1.268h.008l.44-1.268h.678v1.93h-.415v-1.517h-.008l-.517 1.518h-.365l-.518-1.517h-.008v1.518h-.414z"/></g></svg>