<svg xmlns="http://www.w3.org/2000/svg" viewBox="0 0 100 100" enable-background="new 0 0 100 100"><path d="M100 84.7c-4.1 4.1-8.1 8.3-12.2 12.4l-13-12.7-12.9-12.6c-1.4.7-2.7 1.5-4 2.2-4 2-8.2 3.2-12.7 3.6-10.2 1-19.4-1.6-27.4-7.9-7.4-5.8-12-13.3-13.8-22.6-1.9-10-.1-19.4 5.5-27.9 5.7-8.7 13.7-14.1 23.9-16.4 3.2-.7 6.5-1 9.8-.8 9.2.5 17.2 3.9 24 10.3 5.8 5.4 9.5 12.1 11.1 19.9.4 2 .6 4.1.7 6.1.3 6.6-1 12.8-3.9 18.6-.3.6-.7 1.3-1 1.9-.2.3-.2.4.1.7 2.7 2.6 5.3 5.2 8 7.8 2.3 2.2 4.6 4.5 6.9 6.7l10.7 10.4c0 .1.1.2.2.3zM15.7 39.8c0 14.1 11.4 25.6 25.5 25.6 14.2 0 25.6-11.4 25.6-25.5 0-14.5-11.7-25.3-25.1-25.6-14.4-.3-26.1 11.4-26 25.5z"/></svg>